# xmcd CD database file
#
# Track frame offsets:
#	150
#	20435
#	37747
#
# Disc length: 732 seconds
#
# Revision: 1
# Processed by: cddbd v1.5.2PL0 Copyright (c) Steve Scherf et al.
# Submitted via: CDex 1.70beta2
#
DISCID=1502da03
DTITLE=中村一義 - 街の灯
DYEAR=1997
DGENRE=JPop
TTITLE0=街の灯
TTITLE1=いっせーのせっ！
TTITLE2=いっせーのせっ！(山登り編)
EXTD=YEAR: 1997
EXTT0=
EXTT1=
EXTT2=
PLAYORDER=
